<?xml version="1.0" encoding="UTF-8" standalone="no"?>
<!DOCTYPE svg PUBLIC "-//W3C//DTD SVG 1.1//EN"
 "http://www.w3.org/Graphics/SVG/1.1/DTD/svg11.dtd">
<!-- Generated by graphviz version 15.0.0 (20260523.1842)
 -->
<!-- Title: LaborAid Rate Engine Pages: 1 -->
<svg width="1628pt" height="1737pt"
 viewBox="0.00 0.00 1628.00 1737.00" xmlns="http://www.w3.org/2000/svg" xmlns:xlink="http://www.w3.org/1999/xlink">
<g id="graph0" class="graph" transform="scale(1 1) rotate(0) translate(43.2 1693.7)">
<title>LaborAid Rate Engine</title>
<polygon fill="white" stroke="none" points="-43.2,43.2 -43.2,-1693.7 1584.33,-1693.7 1584.33,43.2 -43.2,43.2"/>
<text xml:space="preserve" text-anchor="middle" x="770.56" y="-1625.6" font-family="Helvetica,sans-Serif" font-size="22.00" fill="#16295d">LaborAid Rate Engine — AWS Architecture (us&#45;east&#45;2)</text>
<g id="clust1" class="cluster">
<title>cluster_Edge &amp; Access</title>
<path fill="#e5f5fd" stroke="#aeb6be" d="M410.35,-1224C410.35,-1224 670.95,-1224 670.95,-1224 676.95,-1224 682.95,-1230 682.95,-1236 682.95,-1236 682.95,-1597 682.95,-1597 682.95,-1603 676.95,-1609 670.95,-1609 670.95,-1609 410.35,-1609 410.35,-1609 404.35,-1609 398.35,-1603 398.35,-1597 398.35,-1597 398.35,-1236 398.35,-1236 398.35,-1230 404.35,-1224 410.35,-1224"/>
<text xml:space="preserve" text-anchor="middle" x="444.6" y="-1593.6" font-family="Sans-Serif" font-size="12.00" fill="#16295d">Edge &amp; Access</text>
</g>
<g id="clust2" class="cluster">
<title>cluster_API (HTTP)</title>
<path fill="#e5f5fd" stroke="#aeb6be" d="M209.8,-1010C209.8,-1010 503.15,-1010 503.15,-1010 509.15,-1010 515.15,-1016 515.15,-1022 515.15,-1022 515.15,-1204 515.15,-1204 515.15,-1210 509.15,-1216 503.15,-1216 503.15,-1216 209.8,-1216 209.8,-1216 203.8,-1216 197.8,-1210 197.8,-1204 197.8,-1204 197.8,-1022 197.8,-1022 197.8,-1016 203.8,-1010 209.8,-1010"/>
<text xml:space="preserve" text-anchor="middle" x="235.8" y="-1200.6" font-family="Sans-Serif" font-size="12.00" fill="#16295d">API (HTTP)</text>
</g>
<g id="clust3" class="cluster">
<title>cluster_Extraction pipeline · Step Functions</title>
<path fill="#e5f5fd" stroke="#aeb6be" d="M578.15,-515C578.15,-515 1237.1,-515 1237.1,-515 1243.1,-515 1249.1,-521 1249.1,-527 1249.1,-527 1249.1,-709 1249.1,-709 1249.1,-715 1243.1,-721 1237.1,-721 1237.1,-721 578.15,-721 578.15,-721 572.15,-721 566.15,-715 566.15,-709 566.15,-709 566.15,-527 566.15,-527 566.15,-521 572.15,-515 578.15,-515"/>
<text xml:space="preserve" text-anchor="middle" x="667.53" y="-705.6" font-family="Sans-Serif" font-size="12.00" fill="#16295d">Extraction pipeline · Step Functions</text>
</g>
<g id="clust4" class="cluster">
<title>cluster_AI · Bedrock + AgentCore (Strands)</title>
<path fill="#e5f5fd" stroke="#aeb6be" d="M976.5,-8C976.5,-8 1513.13,-8 1513.13,-8 1519.13,-8 1525.13,-14 1525.13,-20 1525.13,-20 1525.13,-411 1525.13,-411 1525.13,-417 1519.13,-423 1513.13,-423 1513.13,-423 976.5,-423 976.5,-423 970.5,-423 964.5,-417 964.5,-411 964.5,-411 964.5,-20 964.5,-20 964.5,-14 970.5,-8 976.5,-8"/>
<text xml:space="preserve" text-anchor="middle" x="1067.75" y="-407.6" font-family="Sans-Serif" font-size="12.00" fill="#16295d">AI · Bedrock + AgentCore (Strands)</text>
</g>
<g id="clust5" class="cluster">
<title>cluster_Data</title>
<path fill="#e5f5fd" stroke="#aeb6be" d="M1406.6,-431C1406.6,-431 1527.85,-431 1527.85,-431 1533.85,-431 1539.85,-437 1539.85,-443 1539.85,-443 1539.85,-1320 1539.85,-1320 1539.85,-1326 1533.85,-1332 1527.85,-1332 1527.85,-1332 1406.6,-1332 1406.6,-1332 1400.6,-1332 1394.6,-1326 1394.6,-1320 1394.6,-1320 1394.6,-443 1394.6,-443 1394.6,-437 1400.6,-431 1406.6,-431"/>
<text xml:space="preserve" text-anchor="middle" x="1414.6" y="-1316.6" font-family="Sans-Serif" font-size="12.00" fill="#16295d">Data</text>
</g>
<g id="clust6" class="cluster">
<title>cluster_System of record</title>
<path fill="#ebf3e7" stroke="#aeb6be" d="M1420.33,-439C1420.33,-439 1513.13,-439 1513.13,-439 1519.13,-439 1525.13,-445 1525.13,-451 1525.13,-451 1525.13,-661 1525.13,-661 1525.13,-667 1519.13,-673 1513.13,-673 1513.13,-673 1420.33,-673 1420.33,-673 1414.33,-673 1408.33,-667 1408.33,-661 1408.33,-661 1408.33,-451 1408.33,-451 1408.33,-445 1414.33,-439 1420.33,-439"/>
<text xml:space="preserve" text-anchor="middle" x="1460.95" y="-657.6" font-family="Sans-Serif" font-size="12.00" fill="#16295d">System of record</text>
</g>
<g id="clust7" class="cluster">
<title>cluster_Operational telemetry</title>
<path fill="#ebf3e7" stroke="#aeb6be" d="M1414.6,-1094C1414.6,-1094 1519.85,-1094 1519.85,-1094 1525.85,-1094 1531.85,-1100 1531.85,-1106 1531.85,-1106 1531.85,-1288 1531.85,-1288 1531.85,-1294 1525.85,-1300 1519.85,-1300 1519.85,-1300 1414.6,-1300 1414.6,-1300 1408.6,-1300 1402.6,-1294 1402.6,-1288 1402.6,-1288 1402.6,-1106 1402.6,-1106 1402.6,-1100 1408.6,-1094 1414.6,-1094"/>
<text xml:space="preserve" text-anchor="middle" x="1467.23" y="-1284.6" font-family="Sans-Serif" font-size="12.00" fill="#16295d">Operational telemetry</text>
</g>
<g id="clust8" class="cluster">
<title>cluster_Read&#45;model (CQRS)</title>
<path fill="#e5f5fd" stroke="#aeb6be" d="M976.5,-811C976.5,-811 1237.1,-811 1237.1,-811 1243.1,-811 1249.1,-817 1249.1,-823 1249.1,-823 1249.1,-975 1249.1,-975 1249.1,-981 1243.1,-987 1237.1,-987 1237.1,-987 976.5,-987 976.5,-987 970.5,-987 964.5,-981 964.5,-975 964.5,-975 964.5,-823 964.5,-823 964.5,-817 970.5,-811 976.5,-811"/>
<text xml:space="preserve" text-anchor="middle" x="1025.38" y="-971.6" font-family="Sans-Serif" font-size="12.00" fill="#16295d">Read&#45;model (CQRS)</text>
</g>
<!-- 80273841b27a4114a8214a2258821071 -->
<g id="node1" class="node">
<title>80273841b27a4114a8214a2258821071</title>
<image xlink:href="C:\Python3.13.3\Lib\site-packages\resources/onprem/client\users.png" width="100.8px" height="100.8px" preserveAspectRatio="xMinYMin meet" x="9.9476e-14" y="-1298.4"/>
<text xml:space="preserve" text-anchor="middle" x="50.4" y="-1181.75" font-family="Helvetica,sans-Serif" font-size="11.00" fill="#1b2548">Admin &amp; Business</text>
<text xml:space="preserve" text-anchor="middle" x="50.4" y="-1168.25" font-family="Helvetica,sans-Serif" font-size="11.00" fill="#1b2548">users</text>
</g>
<!-- 173f64a63490438c9d78bfe84f0c078b -->
<g id="node2" class="node">
<title>173f64a63490438c9d78bfe84f0c078b</title>
<image xlink:href="C:\Python3.13.3\Lib\site-packages\resources/aws/network\cloudfront.png" width="100.8px" height="100.8px" preserveAspectRatio="xMinYMin meet" x="406.35" y="-1559.4"/>
<text xml:space="preserve" text-anchor="middle" x="456.75" y="-1443.65" font-family="Helvetica,sans-Serif" font-size="11.00" fill="#1b2548">CloudFront</text>
</g>
<!-- 80273841b27a4114a8214a2258821071&#45;&gt;173f64a63490438c9d78bfe84f0c078b -->
<g id="edge13" class="edge">
<title>80273841b27a4114a8214a2258821071&#45;&gt;173f64a63490438c9d78bfe84f0c078b</title>
<path fill="none" stroke="#16295d" d="M100.58,-1279.74C175.31,-1327.98 317.2,-1419.57 397.16,-1471.18"/>
<polygon fill="#16295d" stroke="#16295d" points="395.03,-1473.97 405.33,-1476.45 398.82,-1468.09 395.03,-1473.97"/>
</g>
<!-- d4f5812bc3e949e18fbefad239987b92 -->
<g id="node5" class="node">
<title>d4f5812bc3e949e18fbefad239987b92</title>
<image xlink:href="C:\Python3.13.3\Lib\site-packages\resources/aws/network\api-gateway.png" width="100.8px" height="100.8px" preserveAspectRatio="xMinYMin meet" x="205.8" y="-1166.4"/>
<text xml:space="preserve" text-anchor="middle" x="256.2" y="-1050.65" font-family="Helvetica,sans-Serif" font-size="11.00" fill="#1b2548">API Gateway</text>
</g>
<!-- 80273841b27a4114a8214a2258821071&#45;&gt;d4f5812bc3e949e18fbefad239987b92 -->
<g id="edge14" class="edge">
<title>80273841b27a4114a8214a2258821071&#45;&gt;d4f5812bc3e949e18fbefad239987b92</title>
<path fill="none" stroke="#16295d" d="M100.73,-1216.05C129.54,-1197.39 166.07,-1173.73 196.37,-1154.11"/>
<polygon fill="#16295d" stroke="#16295d" points="198.21,-1157.08 204.7,-1148.71 194.4,-1151.21 198.21,-1157.08"/>
<text xml:space="preserve" text-anchor="middle" x="153.3" y="-1197.97" font-family="Sans-Serif" font-size="13.00" fill="#2d3436">HTTPS</text>
</g>
<!-- 56c66c961a8843cea6512f9263ca745f -->
<g id="node3" class="node">
<title>56c66c961a8843cea6512f9263ca745f</title>
<image xlink:href="C:\Python3.13.3\Lib\site-packages\resources/aws/storage\simple-storage-service-s3.png" width="100.8px" height="100.8px" preserveAspectRatio="xMinYMin meet" x="574.15" y="-1559.4"/>
<text xml:space="preserve" text-anchor="middle" x="624.55" y="-1443.65" font-family="Helvetica,sans-Serif" font-size="11.00" fill="#1b2548">React SPA</text>
</g>
<!-- 173f64a63490438c9d78bfe84f0c078b&#45;&gt;56c66c961a8843cea6512f9263ca745f -->
<g id="edge1" class="edge">
<title>173f64a63490438c9d78bfe84f0c078b&#45;&gt;56c66c961a8843cea6512f9263ca745f</title>
<path fill="none" stroke="#16295d" d="M507.05,-1509C524.51,-1509 544.37,-1509 562.69,-1509"/>
<polygon fill="#16295d" stroke="#16295d" points="562.64,-1512.5 572.64,-1509 562.64,-1505.5 562.64,-1512.5"/>
</g>
<!-- 5cff7d05492e4ac1bbb11c29f36d34a3 -->
<g id="node4" class="node">
<title>5cff7d05492e4ac1bbb11c29f36d34a3</title>
<image xlink:href="C:\Python3.13.3\Lib\site-packages\resources/aws/security\cognito.png" width="100.8px" height="100.8px" preserveAspectRatio="xMinYMin meet" x="406.35" y="-1365.4"/>
<text xml:space="preserve" text-anchor="middle" x="456.75" y="-1248.75" font-family="Helvetica,sans-Serif" font-size="11.00" fill="#1b2548">Cognito</text>
<text xml:space="preserve" text-anchor="middle" x="456.75" y="-1235.25" font-family="Helvetica,sans-Serif" font-size="11.00" fill="#1b2548">(role groups)</text>
</g>
<!-- d4f5812bc3e949e18fbefad239987b92&#45;&gt;5cff7d05492e4ac1bbb11c29f36d34a3 -->
<g id="edge15" class="edge">
<title>d4f5812bc3e949e18fbefad239987b92&#45;&gt;5cff7d05492e4ac1bbb11c29f36d34a3</title>
<path fill="none" stroke="#16295d" stroke-dasharray="1,5" d="M306.53,-1165.45C334.46,-1193.43 369.51,-1228.57 398.63,-1257.75"/>
<polygon fill="#16295d" stroke="#16295d" points="396.06,-1260.13 405.6,-1264.74 401.01,-1255.19 396.06,-1260.13"/>
<text xml:space="preserve" text-anchor="middle" x="356.48" y="-1231.56" font-family="Sans-Serif" font-size="13.00" fill="#2d3436">authZ</text>
</g>
<!-- 6299781cb7fc4a64a3c5ae684b2467f9 -->
<g id="node6" class="node">
<title>6299781cb7fc4a64a3c5ae684b2467f9</title>
<image xlink:href="C:\Python3.13.3\Lib\site-packages\resources/aws/compute\lambda.png" width="100.8px" height="100.8px" preserveAspectRatio="xMinYMin meet" x="406.35" y="-1151.4"/>
<text xml:space="preserve" text-anchor="middle" x="456.75" y="-1034.75" font-family="Helvetica,sans-Serif" font-size="11.00" fill="#1b2548">API Lambdas</text>
<text xml:space="preserve" text-anchor="middle" x="456.75" y="-1021.25" font-family="Helvetica,sans-Serif" font-size="11.00" fill="#1b2548">(22 routes)</text>
</g>
<!-- d4f5812bc3e949e18fbefad239987b92&#45;&gt;6299781cb7fc4a64a3c5ae684b2467f9 -->
<g id="edge2" class="edge">
<title>d4f5812bc3e949e18fbefad239987b92&#45;&gt;6299781cb7fc4a64a3c5ae684b2467f9</title>
<path fill="none" stroke="#16295d" d="M306.53,-1112.27C333.39,-1110.24 366.83,-1107.72 395.24,-1105.57"/>
<polygon fill="#16295d" stroke="#16295d" points="395.45,-1109.07 405.16,-1104.82 394.92,-1102.09 395.45,-1109.07"/>
</g>
<!-- b44b709ec1f7443ebf4b3e28f4d6746f -->
<g id="node7" class="node">
<title>b44b709ec1f7443ebf4b3e28f4d6746f</title>
<image xlink:href="C:\Python3.13.3\Lib\site-packages\resources/aws/integration\step-functions.png" width="100.8px" height="100.8px" preserveAspectRatio="xMinYMin meet" x="574.15" y="-656.4"/>
<text xml:space="preserve" text-anchor="middle" x="624.55" y="-539.75" font-family="Helvetica,sans-Serif" font-size="11.00" fill="#1b2548">Plan → Synthesize</text>
<text xml:space="preserve" text-anchor="middle" x="624.55" y="-526.25" font-family="Helvetica,sans-Serif" font-size="11.00" fill="#1b2548">→ Publish</text>
</g>
<!-- 6299781cb7fc4a64a3c5ae684b2467f9&#45;&gt;b44b709ec1f7443ebf4b3e28f4d6746f -->
<g id="edge18" class="edge">
<title>6299781cb7fc4a64a3c5ae684b2467f9&#45;&gt;b44b709ec1f7443ebf4b3e28f4d6746f</title>
<path fill="none" stroke="#16295d" d="M485.41,-1018.43C514.92,-930.32 561.57,-791.03 592.37,-699.09"/>
<polygon fill="#16295d" stroke="#16295d" points="595.61,-700.42 595.47,-689.83 588.98,-698.2 595.61,-700.42"/>
</g>
<!-- 3cd4dc4f5862479c8d1b867dce2daefb -->
<g id="node13" class="node">
<title>3cd4dc4f5862479c8d1b867dce2daefb</title>
<image xlink:href="C:\Python3.13.3\Lib\site-packages\resources/aws/compute\lambda.png" width="100.8px" height="100.8px" preserveAspectRatio="xMinYMin meet" x="1140.3" y="-149.4"/>
<text xml:space="preserve" text-anchor="middle" x="1190.7" y="-32.75" font-family="Helvetica,sans-Serif" font-size="11.00" fill="#1b2548">ImproverAgent</text>
<text xml:space="preserve" text-anchor="middle" x="1190.7" y="-19.25" font-family="Helvetica,sans-Serif" font-size="11.00" fill="#1b2548">(AgentCore)</text>
</g>
<!-- 6299781cb7fc4a64a3c5ae684b2467f9&#45;&gt;3cd4dc4f5862479c8d1b867dce2daefb -->
<g id="edge19" class="edge">
<title>6299781cb7fc4a64a3c5ae684b2467f9&#45;&gt;3cd4dc4f5862479c8d1b867dce2daefb</title>
<path fill="none" stroke="#c9a21e" stroke-width="2" d="M462.97,-1018.21C479.04,-780.86 532.26,-115 623.55,-115 623.55,-115 623.55,-115 1023.9,-115 1058.93,-115 1097.93,-111.42 1129.3,-107.64"/>
<polygon fill="#c9a21e" stroke="#c9a21e" stroke-width="2" points="1127.99,-111.33 1137.48,-106.62 1127.13,-104.39 1127.99,-111.33"/>
<text xml:space="preserve" text-anchor="middle" x="792.35" y="-119.15" font-family="Sans-Serif" font-size="13.00" fill="#2d3436">Improve</text>
</g>
<!-- 728a409ff1674585a6b1e93638a42f66 -->
<g id="node15" class="node">
<title>728a409ff1674585a6b1e93638a42f66</title>
<image xlink:href="C:\Python3.13.3\Lib\site-packages\resources/aws/database\aurora.png" width="100.8px" height="100.8px" preserveAspectRatio="xMinYMin meet" x="1416.33" y="-594.4"/>
<text xml:space="preserve" text-anchor="middle" x="1466.73" y="-476.85" font-family="Helvetica,sans-Serif" font-size="11.00" fill="#1b2548">Aurora PostgreSQL</text>
<text xml:space="preserve" text-anchor="middle" x="1466.73" y="-463.35" font-family="Helvetica,sans-Serif" font-size="11.00" fill="#1b2548">rate sheets · corrections</text>
<text xml:space="preserve" text-anchor="middle" x="1466.73" y="-449.85" font-family="Helvetica,sans-Serif" font-size="11.00" fill="#1b2548">audit</text>
</g>
<!-- 6299781cb7fc4a64a3c5ae684b2467f9&#45;&gt;728a409ff1674585a6b1e93638a42f66 -->
<g id="edge16" class="edge">
<title>6299781cb7fc4a64a3c5ae684b2467f9&#45;&gt;728a409ff1674585a6b1e93638a42f66</title>
<path fill="none" stroke="#16295d" d="M507.07,-1103.72C540.03,-1105.31 584.38,-1107 623.55,-1107 623.55,-1107 623.55,-1107 1191.7,-1107 1246.84,-1107 1224.31,-1046.26 1249.1,-997 1307.94,-880.08 1336.15,-856.16 1377.6,-732 1390.08,-694.63 1379.14,-681.24 1394.6,-645 1398.92,-634.87 1404.38,-624.73 1410.33,-615.01"/>
<polygon fill="#16295d" stroke="#16295d" points="1413.2,-617.02 1415.62,-606.71 1407.29,-613.26 1413.2,-617.02"/>
<text xml:space="preserve" text-anchor="middle" x="907.63" y="-1111.15" font-family="Sans-Serif" font-size="13.00" fill="#2d3436">rate sheets</text>
</g>
<!-- 681f6cca3a5c48c986921640f0af6320 -->
<g id="node16" class="node">
<title>681f6cca3a5c48c986921640f0af6320</title>
<image xlink:href="C:\Python3.13.3\Lib\site-packages\resources/aws/database\dynamodb.png" width="100.8px" height="100.8px" preserveAspectRatio="xMinYMin meet" x="1416.33" y="-1235.4"/>
<text xml:space="preserve" text-anchor="middle" x="1466.73" y="-1118.75" font-family="Helvetica,sans-Serif" font-size="11.00" fill="#1b2548">DynamoDB</text>
<text xml:space="preserve" text-anchor="middle" x="1466.73" y="-1105.25" font-family="Helvetica,sans-Serif" font-size="11.00" fill="#1b2548">jobs · agent&#45;config</text>
</g>
<!-- 6299781cb7fc4a64a3c5ae684b2467f9&#45;&gt;681f6cca3a5c48c986921640f0af6320 -->
<g id="edge17" class="edge">
<title>6299781cb7fc4a64a3c5ae684b2467f9&#45;&gt;681f6cca3a5c48c986921640f0af6320</title>
<path fill="none" stroke="#16295d" d="M507,-1062.4C538.5,-1041.54 581.26,-1020 623.55,-1020 623.55,-1020 623.55,-1020 1191.7,-1020 1275.87,-1020 1356.42,-1077.83 1408.14,-1125.02"/>
<polygon fill="#16295d" stroke="#16295d" points="1405.69,-1127.52 1415.4,-1131.76 1410.45,-1122.39 1405.69,-1127.52"/>
<text xml:space="preserve" text-anchor="middle" x="907.63" y="-1024.15" font-family="Sans-Serif" font-size="13.00" fill="#2d3436">read jobs</text>
</g>
<!-- 3f109afff7e34cad97c0a654bc1e9976 -->
<g id="node17" class="node">
<title>3f109afff7e34cad97c0a654bc1e9976</title>
<image xlink:href="C:\Python3.13.3\Lib\site-packages\resources/aws/storage\simple-storage-service-s3.png" width="100.8px" height="100.8px" preserveAspectRatio="xMinYMin meet" x="1416.33" y="-1026.4"/>
<text xml:space="preserve" text-anchor="middle" x="1466.73" y="-909.75" font-family="Helvetica,sans-Serif" font-size="11.00" fill="#1b2548">S3 inputs</text>
<text xml:space="preserve" text-anchor="middle" x="1466.73" y="-896.25" font-family="Helvetica,sans-Serif" font-size="11.00" fill="#1b2548">(PDFs)</text>
</g>
<!-- 6299781cb7fc4a64a3c5ae684b2467f9&#45;&gt;3f109afff7e34cad97c0a654bc1e9976 -->
<g id="edge20" class="edge">
<title>6299781cb7fc4a64a3c5ae684b2467f9&#45;&gt;3f109afff7e34cad97c0a654bc1e9976</title>
<path fill="none" stroke="#16295d" d="M506.81,-1145.87C537.91,-1169.65 580.32,-1194 623.55,-1194 623.55,-1194 623.55,-1194 1191.7,-1194 1277.86,-1194 1316.31,-1199.56 1377.6,-1139 1395.8,-1121.02 1383.68,-1107.14 1394.6,-1084 1399.27,-1074.1 1404.74,-1064.06 1410.54,-1054.28"/>
<polygon fill="#16295d" stroke="#16295d" points="1413.43,-1056.26 1415.64,-1045.9 1407.45,-1052.62 1413.43,-1056.26"/>
<text xml:space="preserve" text-anchor="middle" x="907.63" y="-1198.15" font-family="Sans-Serif" font-size="13.00" fill="#2d3436">presign</text>
</g>
<!-- bec5e743a8c64cda9f6cb2b773a841d4 -->
<g id="node8" class="node">
<title>bec5e743a8c64cda9f6cb2b773a841d4</title>
<image xlink:href="C:\Python3.13.3\Lib\site-packages\resources/aws/compute\lambda.png" width="100.8px" height="100.8px" preserveAspectRatio="xMinYMin meet" x="741.95" y="-656.4"/>
<text xml:space="preserve" text-anchor="middle" x="792.35" y="-539.75" font-family="Helvetica,sans-Serif" font-size="11.00" fill="#1b2548">batch&#45;planner</text>
<text xml:space="preserve" text-anchor="middle" x="792.35" y="-526.25" font-family="Helvetica,sans-Serif" font-size="11.00" fill="#1b2548">(Plan)</text>
</g>
<!-- b44b709ec1f7443ebf4b3e28f4d6746f&#45;&gt;bec5e743a8c64cda9f6cb2b773a841d4 -->
<g id="edge3" class="edge">
<title>b44b709ec1f7443ebf4b3e28f4d6746f&#45;&gt;bec5e743a8c64cda9f6cb2b773a841d4</title>
<path fill="none" stroke="#16295d" d="M674.85,-606C692.31,-606 712.17,-606 730.49,-606"/>
<polygon fill="#16295d" stroke="#16295d" points="730.44,-609.5 740.44,-606 730.44,-602.5 730.44,-609.5"/>
</g>
<!-- 5c48bda76b324851aeb74b5b35b48e2b -->
<g id="node19" class="node">
<title>5c48bda76b324851aeb74b5b35b48e2b</title>
<image xlink:href="C:\Python3.13.3\Lib\site-packages\resources/aws/integration\eventbridge.png" width="100.8px" height="100.8px" preserveAspectRatio="xMinYMin meet" x="972.5" y="-937.4"/>
<text xml:space="preserve" text-anchor="middle" x="1022.9" y="-821.65" font-family="Helvetica,sans-Serif" font-size="11.00" fill="#1b2548">EventBridge</text>
</g>
<!-- b44b709ec1f7443ebf4b3e28f4d6746f&#45;&gt;5c48bda76b324851aeb74b5b35b48e2b -->
<g id="edge27" class="edge">
<title>b44b709ec1f7443ebf4b3e28f4d6746f&#45;&gt;5c48bda76b324851aeb74b5b35b48e2b</title>
<path fill="none" stroke="#94a3b8" stroke-dasharray="5,2" d="M674.71,-653.19C694.9,-671.69 718.91,-692.61 741.95,-710 814.84,-765.01 905.03,-819.89 963.01,-853.62"/>
<polygon fill="#94a3b8" stroke="#94a3b8" points="961.02,-856.52 971.43,-858.5 964.53,-850.46 961.02,-856.52"/>
<text xml:space="preserve" text-anchor="middle" x="792.35" y="-783.35" font-family="Sans-Serif" font-size="13.00" fill="#2d3436">status</text>
</g>
<!-- 5143b7ad165b4736b040cd30dd6fbb3d -->
<g id="node21" class="node">
<title>5143b7ad165b4736b040cd30dd6fbb3d</title>
<image xlink:href="C:\Python3.13.3\Lib\site-packages\resources/aws/management\cloudwatch.png" width="100.8px" height="100.8px" preserveAspectRatio="xMinYMin meet" x="741.95" y="-447.4"/>
<text xml:space="preserve" text-anchor="middle" x="792.35" y="-330.75" font-family="Helvetica,sans-Serif" font-size="11.00" fill="#1b2548">CloudWatch</text>
<text xml:space="preserve" text-anchor="middle" x="792.35" y="-317.25" font-family="Helvetica,sans-Serif" font-size="11.00" fill="#1b2548">logs · traces</text>
</g>
<!-- b44b709ec1f7443ebf4b3e28f4d6746f&#45;&gt;5143b7ad165b4736b040cd30dd6fbb3d -->
<g id="edge28" class="edge">
<title>b44b709ec1f7443ebf4b3e28f4d6746f&#45;&gt;5143b7ad165b4736b040cd30dd6fbb3d</title>
<path fill="none" stroke="#94a3b8" stroke-dasharray="5,2" d="M674.85,-543.86C693.72,-520.07 715.39,-492.75 734.88,-468.18"/>
<polygon fill="#94a3b8" stroke="#94a3b8" points="737.54,-470.46 741.02,-460.45 732.06,-466.11 737.54,-470.46"/>
</g>
<!-- 66811cb75e054e9e8d8ed31f5c23b562 -->
<g id="node9" class="node">
<title>66811cb75e054e9e8d8ed31f5c23b562</title>
<image xlink:href="C:\Python3.13.3\Lib\site-packages\resources/aws/compute\lambda.png" width="100.8px" height="100.8px" preserveAspectRatio="xMinYMin meet" x="972.5" y="-656.4"/>
<text xml:space="preserve" text-anchor="middle" x="1022.9" y="-539.75" font-family="Helvetica,sans-Serif" font-size="11.00" fill="#1b2548">synthesizer</text>
<text xml:space="preserve" text-anchor="middle" x="1022.9" y="-526.25" font-family="Helvetica,sans-Serif" font-size="11.00" fill="#1b2548">(Synthesize)</text>
</g>
<!-- bec5e743a8c64cda9f6cb2b773a841d4&#45;&gt;66811cb75e054e9e8d8ed31f5c23b562 -->
<g id="edge4" class="edge">
<title>bec5e743a8c64cda9f6cb2b773a841d4&#45;&gt;66811cb75e054e9e8d8ed31f5c23b562</title>
<path fill="none" stroke="#16295d" d="M842.66,-606C877.51,-606 924.42,-606 961.51,-606"/>
<polygon fill="#16295d" stroke="#16295d" points="961.16,-609.5 971.16,-606 961.16,-602.5 961.16,-609.5"/>
</g>
<!-- 249c17716a2b4080b0018678cf85992d -->
<g id="node10" class="node">
<title>249c17716a2b4080b0018678cf85992d</title>
<image xlink:href="C:\Python3.13.3\Lib\site-packages\resources/aws/compute\lambda.png" width="100.8px" height="100.8px" preserveAspectRatio="xMinYMin meet" x="1140.3" y="-656.4"/>
<text xml:space="preserve" text-anchor="middle" x="1190.7" y="-539.75" font-family="Helvetica,sans-Serif" font-size="11.00" fill="#1b2548">synth&#45;publish</text>
<text xml:space="preserve" text-anchor="middle" x="1190.7" y="-526.25" font-family="Helvetica,sans-Serif" font-size="11.00" fill="#1b2548">(Publish)</text>
</g>
<!-- 66811cb75e054e9e8d8ed31f5c23b562&#45;&gt;249c17716a2b4080b0018678cf85992d -->
<g id="edge5" class="edge">
<title>66811cb75e054e9e8d8ed31f5c23b562&#45;&gt;249c17716a2b4080b0018678cf85992d</title>
<path fill="none" stroke="#16295d" d="M1073.2,-606C1090.66,-606 1110.52,-606 1128.84,-606"/>
<polygon fill="#16295d" stroke="#16295d" points="1128.79,-609.5 1138.79,-606 1128.79,-602.5 1128.79,-609.5"/>
</g>
<!-- b84e178fcc7d4cdc9572c360bdcd61d9 -->
<g id="node14" class="node">
<title>b84e178fcc7d4cdc9572c360bdcd61d9</title>
<image xlink:href="C:\Python3.13.3\Lib\site-packages\resources/aws/ml\bedrock.png" width="100.8px" height="100.8px" preserveAspectRatio="xMinYMin meet" x="1416.33" y="-317.4"/>
<text xml:space="preserve" text-anchor="middle" x="1466.73" y="-199.85" font-family="Helvetica,sans-Serif" font-size="11.00" fill="#1b2548">Bedrock</text>
<text xml:space="preserve" text-anchor="middle" x="1466.73" y="-186.35" font-family="Helvetica,sans-Serif" font-size="11.00" fill="#1b2548">Opus 4.5 / Sonnet 4.6</text>
<text xml:space="preserve" text-anchor="middle" x="1466.73" y="-172.85" font-family="Helvetica,sans-Serif" font-size="11.00" fill="#1b2548">+ PII guardrail</text>
</g>
<!-- 66811cb75e054e9e8d8ed31f5c23b562&#45;&gt;b84e178fcc7d4cdc9572c360bdcd61d9 -->
<g id="edge10" class="edge">
<title>66811cb75e054e9e8d8ed31f5c23b562&#45;&gt;b84e178fcc7d4cdc9572c360bdcd61d9</title>
<path fill="none" stroke="#16295d" d="M1073.17,-559.58C1093.47,-541.09 1117.54,-519.97 1140.3,-502 1241.12,-422.39 1274.52,-413.65 1377.6,-337 1387.44,-329.68 1397.76,-321.74 1407.72,-313.93"/>
<polygon fill="#16295d" stroke="#16295d" points="1409.88,-316.68 1415.56,-307.74 1405.54,-311.19 1409.88,-316.68"/>
</g>
<!-- 249c17716a2b4080b0018678cf85992d&#45;&gt;728a409ff1674585a6b1e93638a42f66 -->
<g id="edge22" class="edge">
<title>249c17716a2b4080b0018678cf85992d&#45;&gt;728a409ff1674585a6b1e93638a42f66</title>
<path fill="none" stroke="#16295d" d="M1241.01,-594.84C1287.04,-584.43 1355.85,-568.86 1405.2,-557.69"/>
<polygon fill="#16295d" stroke="#16295d" points="1405.9,-561.13 1414.88,-555.5 1404.35,-554.3 1405.9,-561.13"/>
<text xml:space="preserve" text-anchor="middle" x="1325.85" y="-590.1" font-family="Sans-Serif" font-size="13.00" fill="#2d3436">write rows</text>
</g>
<!-- cbb1e9fc2a9d4ff68d981732ba3d53a2 -->
<g id="node18" class="node">
<title>cbb1e9fc2a9d4ff68d981732ba3d53a2</title>
<image xlink:href="C:\Python3.13.3\Lib\site-packages\resources/aws/storage\simple-storage-service-s3.png" width="100.8px" height="100.8px" preserveAspectRatio="xMinYMin meet" x="1416.33" y="-817.4"/>
<text xml:space="preserve" text-anchor="middle" x="1466.73" y="-700.75" font-family="Helvetica,sans-Serif" font-size="11.00" fill="#1b2548">S3 outputs</text>
<text xml:space="preserve" text-anchor="middle" x="1466.73" y="-687.25" font-family="Helvetica,sans-Serif" font-size="11.00" fill="#1b2548">(CSV · Excel)</text>
</g>
<!-- 249c17716a2b4080b0018678cf85992d&#45;&gt;cbb1e9fc2a9d4ff68d981732ba3d53a2 -->
<g id="edge23" class="edge">
<title>249c17716a2b4080b0018678cf85992d&#45;&gt;cbb1e9fc2a9d4ff68d981732ba3d53a2</title>
<path fill="none" stroke="#16295d" d="M1240.72,-630.24C1278.73,-649.51 1332.36,-677.74 1377.6,-705.5 1387.36,-711.49 1397.51,-718.14 1407.29,-724.8"/>
<polygon fill="#16295d" stroke="#16295d" points="1405.07,-727.52 1415.29,-730.3 1409.04,-721.75 1405.07,-727.52"/>
<text xml:space="preserve" text-anchor="middle" x="1325.85" y="-709.65" font-family="Sans-Serif" font-size="13.00" fill="#2d3436">artifacts</text>
</g>
<!-- cb7d6ddd32b34889a4d8e4fd9d6246ad -->
<g id="node11" class="node">
<title>cb7d6ddd32b34889a4d8e4fd9d6246ad</title>
<image xlink:href="C:\Python3.13.3\Lib\site-packages\resources/aws/compute\ec2-container-registry.png" width="100.8px" height="100.8px" preserveAspectRatio="xMinYMin meet" x="972.5" y="-328.4"/>
<text xml:space="preserve" text-anchor="middle" x="1022.9" y="-211.75" font-family="Helvetica,sans-Serif" font-size="11.00" fill="#1b2548">ECR</text>
<text xml:space="preserve" text-anchor="middle" x="1022.9" y="-198.25" font-family="Helvetica,sans-Serif" font-size="11.00" fill="#1b2548">agent images</text>
</g>
<!-- badc3aa2a324415497254f88a1243008 -->
<g id="node12" class="node">
<title>badc3aa2a324415497254f88a1243008</title>
<image xlink:href="C:\Python3.13.3\Lib\site-packages\resources/aws/compute\lambda.png" width="100.8px" height="100.8px" preserveAspectRatio="xMinYMin meet" x="1140.3" y="-358.4"/>
<text xml:space="preserve" text-anchor="middle" x="1190.7" y="-241.75" font-family="Helvetica,sans-Serif" font-size="11.00" fill="#1b2548">ExtractorAgent</text>
<text xml:space="preserve" text-anchor="middle" x="1190.7" y="-228.25" font-family="Helvetica,sans-Serif" font-size="11.00" fill="#1b2548">(AgentCore)</text>
</g>
<!-- cb7d6ddd32b34889a4d8e4fd9d6246ad&#45;&gt;badc3aa2a324415497254f88a1243008 -->
<g id="edge6" class="edge">
<title>cb7d6ddd32b34889a4d8e4fd9d6246ad&#45;&gt;badc3aa2a324415497254f88a1243008</title>
<path fill="none" stroke="#16295d" stroke-dasharray="1,5" d="M1073.2,-286.92C1090.75,-290.1 1110.71,-293.71 1129.1,-297.03"/>
<polygon fill="#16295d" stroke="#16295d" points="1128.35,-300.46 1138.82,-298.79 1129.6,-293.57 1128.35,-300.46"/>
</g>
<!-- cb7d6ddd32b34889a4d8e4fd9d6246ad&#45;&gt;3cd4dc4f5862479c8d1b867dce2daefb -->
<g id="edge7" class="edge">
<title>cb7d6ddd32b34889a4d8e4fd9d6246ad&#45;&gt;3cd4dc4f5862479c8d1b867dce2daefb</title>
<path fill="none" stroke="#16295d" stroke-dasharray="1,5" d="M1073.2,-224.78C1091.9,-204.58 1113.36,-181.42 1132.72,-160.52"/>
<polygon fill="#16295d" stroke="#16295d" points="1135.05,-163.15 1139.28,-153.44 1129.92,-158.39 1135.05,-163.15"/>
</g>
<!-- badc3aa2a324415497254f88a1243008&#45;&gt;b84e178fcc7d4cdc9572c360bdcd61d9 -->
<g id="edge8" class="edge">
<title>badc3aa2a324415497254f88a1243008&#45;&gt;b84e178fcc7d4cdc9572c360bdcd61d9</title>
<path fill="none" stroke="#16295d" d="M1240.77,-282.91C1251.5,-278.47 1262.98,-274.48 1274.1,-272 1317.23,-262.4 1367.16,-261.41 1405.24,-262.69"/>
<polygon fill="#16295d" stroke="#16295d" points="1405.02,-266.18 1415.15,-263.09 1405.3,-259.19 1405.02,-266.18"/>
</g>
<!-- badc3aa2a324415497254f88a1243008&#45;&gt;728a409ff1674585a6b1e93638a42f66 -->
<g id="edge24" class="edge">
<title>badc3aa2a324415497254f88a1243008&#45;&gt;728a409ff1674585a6b1e93638a42f66</title>
<path fill="none" stroke="#16295d" d="M1241.03,-323.67C1289.24,-339.84 1358.12,-365.52 1377.6,-386 1392.91,-402.1 1384.77,-413.08 1394.6,-433 1399.42,-442.77 1404.91,-452.75 1410.66,-462.52"/>
<polygon fill="#16295d" stroke="#16295d" points="1407.54,-464.14 1415.69,-470.91 1413.55,-460.53 1407.54,-464.14"/>
</g>
<!-- badc3aa2a324415497254f88a1243008&#45;&gt;3f109afff7e34cad97c0a654bc1e9976 -->
<g id="edge25" class="edge">
<title>badc3aa2a324415497254f88a1243008&#45;&gt;3f109afff7e34cad97c0a654bc1e9976</title>
<path fill="none" stroke="#16295d" stroke-dasharray="1,5" d="M1241.09,-354.94C1285.77,-400.9 1348.85,-475.31 1377.6,-554 1426.03,-686.52 1349.62,-737.27 1394.6,-871 1398.5,-882.58 1404.05,-894.08 1410.35,-904.98"/>
<polygon fill="#16295d" stroke="#16295d" points="1407.36,-906.79 1415.54,-913.52 1413.34,-903.16 1407.36,-906.79"/>
</g>
<!-- 3cd4dc4f5862479c8d1b867dce2daefb&#45;&gt;b84e178fcc7d4cdc9572c360bdcd61d9 -->
<g id="edge9" class="edge">
<title>3cd4dc4f5862479c8d1b867dce2daefb&#45;&gt;b84e178fcc7d4cdc9572c360bdcd61d9</title>
<path fill="none" stroke="#16295d" d="M1241.01,-129.23C1287.52,-157.75 1357.31,-200.53 1406.75,-230.84"/>
<polygon fill="#16295d" stroke="#16295d" points="1404.71,-233.7 1415.06,-235.94 1408.37,-227.73 1404.71,-233.7"/>
</g>
<!-- 3cd4dc4f5862479c8d1b867dce2daefb&#45;&gt;728a409ff1674585a6b1e93638a42f66 -->
<g id="edge26" class="edge">
<title>3cd4dc4f5862479c8d1b867dce2daefb&#45;&gt;728a409ff1674585a6b1e93638a42f66</title>
<path fill="none" stroke="#c9a21e" stroke-width="2" d="M1241.05,-156.11C1251.91,-168.62 1263.37,-181.78 1274.1,-194 1319.79,-246.05 1348.59,-247.61 1377.6,-310.5 1400.62,-360.41 1375.55,-381.44 1394.6,-433 1398.89,-444.62 1404.55,-456.3 1410.81,-467.48"/>
<polygon fill="#c9a21e" stroke="#c9a21e" stroke-width="2" points="1406.86,-467.66 1414.92,-474.54 1412.92,-464.14 1406.86,-467.66"/>
<text xml:space="preserve" text-anchor="middle" x="1325.85" y="-314.65" font-family="Sans-Serif" font-size="13.00" fill="#2d3436">v+1 + change log</text>
</g>
<!-- 3f109afff7e34cad97c0a654bc1e9976&#45;&gt;bec5e743a8c64cda9f6cb2b773a841d4 -->
<g id="edge21" class="edge">
<title>3f109afff7e34cad97c0a654bc1e9976&#45;&gt;bec5e743a8c64cda9f6cb2b773a841d4</title>
<path fill="none" stroke="#16295d" d="M1416.64,-927.37C1375.07,-888.5 1312.3,-835.07 1249.1,-801 1132.21,-737.98 1085.33,-765.09 964.5,-710 925.34,-692.15 884.04,-667.24 851.82,-646.28"/>
<polygon fill="#16295d" stroke="#16295d" points="854.1,-643.59 843.82,-641.03 850.26,-649.45 854.1,-643.59"/>
</g>
<!-- 0bae935d343f49629ae444a13ee6109d -->
<g id="node20" class="node">
<title>0bae935d343f49629ae444a13ee6109d</title>
<image xlink:href="C:\Python3.13.3\Lib\site-packages\resources/aws/compute\lambda.png" width="100.8px" height="100.8px" preserveAspectRatio="xMinYMin meet" x="1140.3" y="-937.4"/>
<text xml:space="preserve" text-anchor="middle" x="1190.7" y="-821.65" font-family="Helvetica,sans-Serif" font-size="11.00" fill="#1b2548">job&#45;writer</text>
</g>
<!-- 5c48bda76b324851aeb74b5b35b48e2b&#45;&gt;0bae935d343f49629ae444a13ee6109d -->
<g id="edge11" class="edge">
<title>5c48bda76b324851aeb74b5b35b48e2b&#45;&gt;0bae935d343f49629ae444a13ee6109d</title>
<path fill="none" stroke="#16295d" d="M1073.2,-887C1090.66,-887 1110.52,-887 1128.84,-887"/>
<polygon fill="#16295d" stroke="#16295d" points="1128.79,-890.5 1138.79,-887 1128.79,-883.5 1128.79,-890.5"/>
</g>
<!-- 0bae935d343f49629ae444a13ee6109d&#45;&gt;681f6cca3a5c48c986921640f0af6320 -->
<g id="edge12" class="edge">
<title>0bae935d343f49629ae444a13ee6109d&#45;&gt;681f6cca3a5c48c986921640f0af6320</title>
<path fill="none" stroke="#16295d" d="M1240.8,-900.16C1283.99,-914.41 1344.94,-941.59 1377.6,-988 1406.07,-1028.46 1374.46,-1052.82 1394.6,-1098 1398.64,-1107.06 1403.88,-1115.96 1409.69,-1124.4"/>
<polygon fill="#16295d" stroke="#16295d" points="1406.85,-1126.45 1415.56,-1132.49 1412.52,-1122.34 1406.85,-1126.45"/>
</g>
</g>
</svg>
